Coordinates
version=1
nRows=29
nColumns=24
inDegrees=yes

Units are S.I. units (second, meters, Newtons, ...)
Angles are in degrees.

endheader
time	pelvis_tilt	pelvis_list	pelvis_rotation	pelvis_tx	pelvis_ty	pelvis_tz	hip_flexion_r	hip_adduction_r	hip_rotation_r	knee_angle_r	ankle_angle_r	subtalar_angle_r	mtp_angle_r	hip_flexion_l	hip_adduction_l	hip_rotation_l	knee_angle_l	ankle_angle_l	subtalar_angle_l	mtp_angle_l	lumbar_extension	lumbar_bending	lumbar_rotation
      1.15683333	      4.60216362	      4.00243623	     -5.07149902	      0.16867988	      1.02722076	      0.25768461	     10.33814715	     -3.64290500	     -0.37869467	    -63.06836172	      3.71795992	    -21.69529822	      0.88752373	      2.68832035	      7.20797304	     -0.55374808	    -11.56597661	      3.97807157	    -13.36947844	      3.34245383	     -7.54790197	     -5.53259989	      5.58305145
      1.16100000	      4.58290348	      3.86540231	     -5.03571835	      0.17377805	      1.02791863	      0.25758673	     10.82337123	     -3.44128692	     -0.31970939	    -62.49300936	      3.93628742	    -21.56828138	      0.72878680	      2.21266066	      7.11230553	     -0.34788559	    -11.24884218	      4.05914116	    -13.50830031	      3.24365130	     -7.59382222	     -5.40702566	      5.26292134
      1.16516667	      4.56156588	      3.72274778	     -5.01097205	      0.17889280	      1.02858060	      0.25753063	     11.29232615	     -3.22623304	     -0.24447065	    -61.84848806	      4.15273263	    -21.45519672	      0.56957477	      1.74256118	      7.00018399	     -0.21581471	    -10.93965522	      4.13957007	    -13.59035855	      3.12818422	     -7.62477220	     -5.26872367	      5.06997787
      1.16933333	      4.54357241	      3.56911647	     -4.97646991	      0.18400605	      1.02923639	      0.25747568	     11.73331625	     -2.99867046	     -0.17830621	    -61.12916616	      4.34805294	    -21.32527242	      0.46899907	      1.27245082	      6.87199985	     -0.10807919	    -10.63923962	      4.23298999	    -13.62454637	      3.04246311	     -7.66362331	     -5.11345885	      4.88916019
      1.17350000	      4.48413197	      3.44000802	     -4.95750563	      0.18913228	      1.02976216	      0.25745592	     12.21872096	     -2.79149163	     -0.09111101	    -60.37799114	      4.54415429	    -21.21615379	      0.44377006	      0.84894741	      6.76047779	     -0.05463286	    -10.33518985	      4.31991916	    -13.60932970	      3.01530785	     -7.64729496	     -4.97327053	      4.78314106
      1.17766667	      4.50021729	      3.29890924	     -4.88775528	      0.19424025	      1.03038842	      0.25738043	     12.57948036	     -2.59293625	     -0.06479632	    -59.53337654	      4.72694768	    -21.02696340	      0.36507388	      0.33125637	      6.64927042	      0.12735993	    -10.00934401	      4.39732368	    -13.70448439	      2.92214685	     -7.73110027	     -4.85282481	      4.44080594
      1.18183333	      4.47770796	      3.16720305	     -4.83009731	      0.19936791	      1.03091421	      0.25732489	     12.97277994	     -2.39961966	     -0.02507674	    -58.64503070	      4.88547186	    -20.87538910	      0.29646074	     -0.14557784	      6.54024683	      0.25831064	     -9.67764999	      4.46698503	    -13.76317395	      2.82716777	     -7.76131368	     -4.72227000	      4.20406027
      1.18600000	      4.45828401	      3.03493191	     -4.76827273	      0.20449211	      1.03139991	      0.25728220	     13.34385652	     -2.20684049	      0.01049161	    -57.70014839	      5.02853613	    -20.73328468	      0.24218385	     -0.62309367	      6.42616450	      0.37317598	     -9.35030604	      4.54378828	    -13.79512197	      2.73916791	     -7.79577098	     -4.59393522	      3.97408926
      1.19016667	      4.39779794	      2.90519886	     -4.70599916	      0.20963441	      1.03179419	      0.25725964	     13.74127900	     -2.01072757	      0.05230944	    -56.70314426	      5.16391180	    -20.59734294	      0.22265903	     -1.04656262	      6.30508208	      0.44318676	     -9.04229577	      4.60844479	    -13.77827978	      2.69978171	     -7.77779887	     -4.46179346	      3.82676182
      1.19433333	      4.42086393	      2.78743182	     -4.62472728	      0.21475146	      1.03226051	      0.25720059	     14.02735358	     -1.85163944	      0.05651707	    -55.65209470	      5.26386577	    -20.47949303	      0.18309102	     -1.58311278	      6.20857237	      0.59854595	     -8.68266041	      4.69376306	    -13.82479765	      2.61607707	     -7.86742917	     -4.35461453	      3.48448673
      1.19850000	      4.38387209	      2.67278290	     -4.54052991	      0.21988829	      1.03259740	      0.25715927	     14.36156378	     -1.68896805	      0.06449523	    -54.55577241	      5.35297255	    -20.37301034	      0.14687858	     -2.04432123	      6.10520287	      0.72541174	     -8.34310252	      4.75945885	    -13.86035557	      2.52902803	     -7.88113738	     -4.24072504	      3.21605370
      1.20266667	      4.37338486	      2.55859586	     -4.45905979	      0.22502310	      1.03293235	      0.25712614	     14.64765485	     -1.53279450	      0.06951007	    -53.40839980	      5.42105421	    -20.28911452	      0.11579123	     -2.53684035	      6.00159899	      0.83510924	     -7.99727143	      4.83156777	    -13.86939974	      2.44680367	     -7.92580870	     -4.13236751	      2.96030476
      1.20683333	      4.33964249	      2.45144530	     -4.36783789	      0.23016626	      1.03318415	      0.25708556	     14.94145633	     -1.38887825	      0.06031855	    -52.21856242	      5.46588941	    -20.22193267	      0.08626302	     -3.00080807	      5.90123251	      0.94754225	     -7.65650375	      4.90826990	    -13.87781694	      2.36377224	     -7.93959511	     -4.02667857	      2.68894830
      1.21100000	      4.28271666	      2.34948455	     -4.28002518	      0.23531937	      1.03335489	      0.25706092	     15.24422041	     -1.25088973	      0.05446518	    -50.98897179	      5.51816520	    -20.13341882	      0.07171260	     -3.42634007	      5.79943835	      1.01172007	     -7.34123954	      4.96517145	    -13.84840466	      2.31916612	     -7.92188586	     -3.92252120	      2.51440136
      1.21516667	      4.25124965	      2.24611296	     -4.18601475	      0.24046822	      1.03351995	      0.25703408	     15.49751910	     -1.11884390	      0.03469672	    -49.71017157	      5.52583126	    -20.09398495	      0.05604871	     -3.88786951	      5.69757071	      1.10229436	     -7.00892383	      5.04463212	    -13.82502932	      2.27448506	     -7.93839624	     -3.81630673	      2.27598464
      1.21933333	      4.24670418	      2.15698031	     -4.09276545	      0.24561195	      1.03368719	      0.25702338	     15.70564417	     -1.00668826	      0.01446112	    -48.39216419	      5.48168968	    -20.13437621	      0.02924523	     -4.39345133	      5.61283663	      1.23083194	     -6.64217836	      5.13435279	    -13.83188556	      2.19716029	     -7.99465145	     -3.74228265	      1.91830523
      1.22350000	      4.17849183	      2.07272884	     -4.00236886	      0.25077082	      1.03368907	      0.25700366	     15.97142523	     -0.90389929	     -0.01488539	    -47.04932551	      5.48127697	    -20.07200276	      0.01609806	     -4.80093920	      5.52484167	      1.28376033	     -6.33420541	      5.19956366	    -13.79728795	      2.15758090	     -7.95502393	     -3.65086551	      1.74527493
      1.22766667	      4.18881019	      1.98991877	     -3.91098267	      0.25592934	      1.03379347	      0.25700314	     16.12475591	     -0.80794042	     -0.04368719	    -45.65078670	      5.40911608	    -20.13755369	     -0.01669735	     -5.32473826	      5.44380285	      1.39771121	     -5.96009579	      5.26468382	    -13.79538568	      2.05675849	     -8.02315862	     -3.57860577	      1.38065492
      1.23183333	      4.12805355	      1.91334668	     -3.81443310	      0.26109030	      1.03372714	      0.25699720	     16.34404547	     -0.72202221	     -0.08860672	    -44.22841969	      5.32120449	    -20.15113893	     -0.03892142	     -5.74177719	      5.36138882	      1.48165979	     -5.65063622	      5.37844447	    -13.76311743	      1.99194015	     -8.00559419	     -3.50314397	      1.16078421
      1.23600000	      4.08962382	      1.83857323	     -3.72850125	      0.26626485	      1.03365299	      0.25700778	     16.51958371	     -0.64114414	     -0.12864704	    -42.76827651	      5.22914024	    -20.17141579	     -0.06004452	     -6.18918705	      5.28129451	      1.54643872	     -5.32700041	      5.46676114	    -13.72008785	      1.92811742	     -8.00777804	     -3.42880010	      0.92242145
      1.24016667	      4.04048704	      1.77497487	     -3.64329434	      0.27144668	      1.03351919	      0.25702672	     16.69096091	     -0.57607287	     -0.17640687	    -41.27915952	      5.12179828	    -20.19555895	     -0.08052089	     -6.62053678	      5.21166312	      1.60872051	     -5.01152212	      5.55590167	    -13.67659455	      1.86249895	     -7.99310222	     -3.36650937	      0.68466414
      1.24433333	      4.00098511	      1.71053440	     -3.55967345	      0.27662916	      1.03336412	      0.25705827	     16.83141420	     -0.51435577	     -0.23246658	    -39.75294784	      4.99849694	    -20.20615169	     -0.09823107	     -7.05979355	      5.13963617	      1.66656041	     -4.70186240	      5.64996612	    -13.62803707	      1.80139482	     -7.99746517	     -3.30759447	      0.46202152
      1.24850000	      3.94068885	      1.65199266	     -3.47879851	      0.28182568	      1.03313215	      0.25709621	     16.97804003	     -0.46124303	     -0.29480976	    -38.19879363	      4.86147489	    -20.20662349	     -0.11266980	     -7.47252741	      5.07186121	      1.72075418	     -4.40043539	      5.74823376	    -13.57629792	      1.74430257	     -7.97245968	     -3.24671576	      0.25142644
      1.25266667	      3.85675826	      1.60825149	     -3.40519481	      0.28706138	      1.03281133	      0.25712712	     17.13888129	     -0.43422588	     -0.38371354	    -36.63174003	      4.75119600	    -20.12406775	     -0.11971660	     -7.85082964	      5.01970751	      1.73686186	     -4.11977466	      5.83454724	    -13.52576705	      1.71166475	     -7.89088268	     -3.18983668	      0.11066530
      1.25683333	      3.81302285	      1.55094516	     -3.33143632	      0.29226371	      1.03252446	      0.25721565	     17.22599501	     -0.38098514	     -0.44373342	    -35.00747665	      4.55472713	    -20.16653546	     -0.12801823	     -8.28287407	      4.95085844	      1.80581507	     -3.81837914	      5.95935558	    -13.46812610	      1.65446719	     -7.90486715	     -3.15030992	     -0.14737902
      1.26100000	      3.75820008	      1.51212523	     -3.26462598	      0.29749495	      1.03216452	      0.25729020	     17.31597763	     -0.35873434	     -0.53324469	    -33.37623110	      4.38760561	    -20.12251820	     -0.12902432	     -8.69499098	      4.90336502	      1.84599131	     -3.53421731	      6.07560423	    -13.41554845	      1.59284438	     -7.86829330	     -3.11254201	     -0.35562509
      1.26516667	      3.67917956	      1.46976650	     -3.19111120	      0.30273667	      1.03175449	      0.25737037	     17.40633005	     -0.33344193	     -0.63533949	    -31.70619093	      4.21717884	    -20.02065156	     -0.12425734	     -9.06385530	      4.84798864	      1.88491061	     -3.28672704	      6.18296504	    -13.36314848	      1.54203066	     -7.81687549	     -3.06416763	     -0.51571140
      1.26933333	      3.62289996	      1.43118222	     -3.13356672	      0.30801197	      1.03131096	      0.25748219	     17.45938286	     -0.31229638	     -0.74510250	    -30.02475812	      4.02503400	    -19.93353495	     -0.10982221	     -9.47575212	      4.79889379	      1.92293563	     -3.00601381	      6.31672745	    -13.30529502	      1.47977760	     -7.77700828	     -3.03148556	     -0.70978165
      1.27350000	      3.55177201	      1.39459997	     -3.07237280	      0.31329570	      1.03082547	      0.25760370	     17.50661596	     -0.29299157	     -0.86673472	    -28.31478028	      3.83110880	    -19.79809083	     -0.08524579	     -9.85795283	      4.74934614	      1.96063614	     -2.75448973	      6.44827923	    -13.24794116	      1.41676875	     -7.72179048	     -2.99635895	     -0.87577584
